<svg width="16" height="16" viewBox="0 0 16 16" fill="none" xmlns="http://www.w3.org/2000/svg">
<path fill-rule="evenodd" clip-rule="evenodd" d="M5.25 6C6.35457 6 7.25 5.10457 7.25 4V2C7.25 0.895431 6.35457 0 5.25 0H2C0.895431 0 0 0.89543 0 2V4C0 5.10457 0.895431 6 2 6H5.25ZM2 5C1.44772 5 1 4.55228 1 4V2C1 1.44772 1.44772 1 2 1H5.25C5.80228 1 6.25 1.44772 6.25 2V4C6.25 4.55228 5.80228 5 5.25 5H2ZM7.25 14C7.25 15.1046 6.35457 16 5.25 16H2C0.895431 16 0 15.1046 0 14V9.5C0 8.39543 0.895431 7.5 2 7.5H5.25C6.35457 7.5 7.25 8.39543 7.25 9.5V14ZM2 15C1.44772 15 1 14.5523 1 14V9.5C1 8.94772 1.44772 8.5 2 8.5H5.25C5.80228 8.5 6.25 8.94771 6.25 9.5V14C6.25 14.5523 5.80228 15 5.25 15H2ZM16 6.5C16 7.60457 15.1046 8.5 14 8.5H10.75C9.64543 8.5 8.75 7.60457 8.75 6.5V2C8.75 0.89543 9.64543 0 10.75 0H14C15.1046 0 16 0.895431 16 2V6.5ZM10.75 7.5C10.1977 7.5 9.75 7.05228 9.75 6.5V2C9.75 1.44772 10.1977 1 10.75 1H14C14.5523 1 15 1.44772 15 2V6.5C15 7.05228 14.5523 7.5 14 7.5H10.75ZM16 14C16 15.1046 15.1046 16 14 16H10.75C9.64543 16 8.75 15.1046 8.75 14V12C8.75 10.8954 9.64543 10 10.75 10H14C15.1046 10 16 10.8954 16 12V14ZM10.75 15C10.1977 15 9.75 14.5523 9.75 14V12C9.75 11.4477 10.1977 11 10.75 11H14C14.5523 11 15 11.4477 15 12V14C15 14.5523 14.5523 15 14 15H10.75Z" fill="white"/>
</svg>
