<svg width="16" height="16" viewBox="0 0 16 16" fill="none" xmlns="http://www.w3.org/2000/svg">
<g clip-path="url(#clip0)">
<path d="M14.6287 7.24041L12.4251 9.48948C12.5009 8.69511 12.4094 7.79512 12.1742 7.11297L12.1742 7.11292C12.1721 7.10701 12.1739 7.10216 12.1766 7.09934L13.39 5.85157C13.3901 5.85146 13.3902 5.85135 13.3903 5.85123C14.2657 4.95744 14.2511 3.51127 13.3579 2.63537C12.4722 1.75047 11.0313 1.75808 10.155 2.65245L10.2979 2.79242L10.155 2.65245L8.15089 4.69793L7.92699 4.92645L7.93125 4.92786C7.91679 4.94251 7.90225 4.95722 7.88764 4.97201C7.6937 5.16828 7.48809 5.37637 7.30988 5.5853C7.09291 5.83969 6.89493 6.11864 6.78784 6.41886L6.77745 6.41628L6.7319 6.61464C6.60378 7.17249 6.68684 7.71328 6.92736 8.19221L7.02212 8.3809L7.0343 8.37393C7.23678 8.68322 7.52766 8.96191 7.82756 9.13082C7.50925 9.64171 7.14563 10.0497 6.70974 10.4764C4.6646 9.10663 4.27623 6.02503 6.07012 4.169L6.07011 4.16899L6.07854 4.16007L6.08113 4.15726L8.7267 1.45711C10.3332 -0.182475 12.9759 -0.195984 14.599 1.42714C16.189 3.01716 16.2024 5.63424 14.6287 7.24041L14.7715 7.38038L14.6287 7.24041ZM6.97393 6.46503C6.97501 6.46529 6.97545 6.4654 6.97498 6.46529L6.97393 6.46503Z" fill="white" stroke="#757A8E" stroke-width="0.4"/>
<path d="M10.5705 10.949C10.5692 10.9522 10.5677 10.9559 10.5663 10.9602L10.4258 11.3776L10.5858 11.3111C10.1503 11.9263 9.08985 12.9823 8.28606 13.7827C7.89626 14.1708 7.56681 14.4989 7.39827 14.6874L10.7557 11.0236L10.7557 11.0236L10.5668 10.9603L10.5663 10.9602C10.5681 10.9551 10.5698 10.9506 10.5713 10.947M10.5705 10.949C10.5707 10.9483 10.571 10.9477 10.5713 10.947M10.5705 10.949C10.5719 10.9454 10.5732 10.9426 10.5741 10.9406M10.5705 10.949C10.5093 11.0946 10.3211 11.3489 10.0356 11.6777C9.75605 11.9998 9.40331 12.3711 9.03933 12.7427C8.74086 13.0474 8.43272 13.3543 8.15331 13.6326C7.7608 14.0235 7.425 14.3579 7.25237 14.5505C5.66228 16.17 3.03531 16.1961 1.41349 14.6078C-0.192924 13.0006 -0.206168 10.356 1.38421 8.73274L3.55785 6.51423C3.49095 7.30308 3.5844 8.19104 3.81168 8.88841L3.8117 8.88845C3.81345 8.89381 3.81192 8.89854 3.80906 8.90147L3.80906 8.90148L2.59207 10.153C2.59198 10.1531 2.59189 10.1532 2.59179 10.1533C1.71613 11.0473 1.73099 12.4941 2.62491 13.3699C3.51892 14.2459 4.96589 14.2311 5.84183 13.3371L5.8419 13.337C6.03706 13.1376 6.36091 12.8072 6.6998 12.4615C7.13271 12.0199 7.59016 11.5532 7.83526 11.3025L7.97354 11.1611L7.97342 11.161C7.98957 11.1446 8.00584 11.1281 8.02219 11.1116C8.25669 10.874 8.50954 10.6178 8.72298 10.3531C8.95591 10.0643 9.15956 9.74506 9.24674 9.39963H9.2484L9.25377 9.37063C9.26414 9.32597 9.27255 9.28089 9.2788 9.23538C9.38839 8.64216 9.22086 8.09164 9.04344 7.79149L9.04043 7.78641C9.01441 7.73858 8.98693 7.69217 8.95812 7.64717L8.93355 7.6056L8.93172 7.60688C8.72041 7.29177 8.44279 7.04821 8.14299 6.87339C8.41202 6.32436 8.82122 5.88856 9.24805 5.54321C9.24846 5.54302 9.24911 5.54275 9.25002 5.54244C9.25333 5.54128 9.25827 5.54019 9.26417 5.53991C9.27008 5.53963 9.27499 5.54027 9.27819 5.54105C9.27886 5.54122 9.27937 5.54137 9.27973 5.54149C10.1111 6.10028 10.7252 7.01036 10.948 7.92218L10.9712 8.01711C11.1806 9.02224 11.0701 10.0394 10.5852 10.926L10.7377 11.0094L10.5713 10.947M10.5713 10.947C10.5724 10.9444 10.5733 10.9423 10.5741 10.9407L10.5741 10.9406M10.5741 10.9406C10.5749 10.9389 10.5756 10.9373 10.5762 10.9362M10.5741 10.9406L10.5762 10.9362M10.5762 10.9362L10.5762 10.9362L10.5763 10.9359M10.5762 10.9362C10.5762 10.9361 10.5763 10.936 10.5763 10.9359M10.5763 10.9359C10.5768 10.935 10.577 10.9344 10.5769 10.9347L10.5769 10.9347L10.5769 10.9347L10.5769 10.9348L10.5767 10.9351L10.5763 10.9359ZM8.14086 6.87775L8.14087 6.87773L8.14086 6.87775ZM3.59537 6.19017L1.24136 8.59277L3.59537 6.19017Z" fill="white" stroke="#757A8E" stroke-width="0.4"/>
</g>
<defs>
<clipPath id="clip0">
<rect width="16" height="16" fill="white"/>
</clipPath>
</defs>
</svg>
