<svg width="16" height="14" viewBox="0 0 16 14" fill="none" xmlns="http://www.w3.org/2000/svg">
<path fill-rule="evenodd" clip-rule="evenodd" d="M2.28571 11.7143C2.28571 11.5536 2.16071 11.4286 2 11.4286H0.285714C0.125 11.4286 0 11.5536 0 11.7143V13.4286C0 13.5893 0.125 13.7143 0.285714 13.7143H2C2.16071 13.7143 2.28571 13.5893 2.28571 13.4286V11.7143ZM5.71429 10.5714C5.71429 10.4107 5.58929 10.2857 5.42857 10.2857H3.71429C3.55357 10.2857 3.42857 10.4107 3.42857 10.5714V13.4286C3.42857 13.5893 3.55357 13.7143 3.71429 13.7143H5.42857C5.58929 13.7143 5.71429 13.5893 5.71429 13.4286V10.5714ZM9.14286 8.28571C9.14286 8.125 9.01786 8 8.85714 8H7.14286C6.98214 8 6.85714 8.125 6.85714 8.28571V13.4286C6.85714 13.5893 6.98214 13.7143 7.14286 13.7143H8.85714C9.01786 13.7143 9.14286 13.5893 9.14286 13.4286V8.28571ZM12.5714 4.85714C12.5714 4.69643 12.4464 4.57143 12.2857 4.57143H10.5714C10.4107 4.57143 10.2857 4.69643 10.2857 4.85714V13.4286C10.2857 13.5893 10.4107 13.7143 10.5714 13.7143H12.2857C12.4464 13.7143 12.5714 13.5893 12.5714 13.4286V4.85714ZM16 0.285714C16 0.125 15.875 0 15.7143 0H14C13.8393 0 13.7143 0.125 13.7143 0.285714V13.4286C13.7143 13.5893 13.8393 13.7143 14 13.7143H15.7143C15.875 13.7143 16 13.5893 16 13.4286V0.285714Z" fill="white"/>
</svg>
