<svg width="189" height="48" viewBox="0 0 189 48" fill="none" xmlns="http://www.w3.org/2000/svg">
<path fill-rule="evenodd" clip-rule="evenodd" d="M80.9422 31.3833V10.7822H76.5867V31.3833H80.9422ZM66.4809 31.2507C65.6281 31.6026 64.7042 31.7786 63.7092 31.7786C62.3995 31.7786 61.2396 31.4829 60.2294 30.8915C59.2192 30.3001 58.44 29.4741 57.8917 28.4135C57.3435 27.3529 57.0693 26.1188 57.0693 24.7112C57.0693 23.2449 57.3638 21.9595 57.9526 20.8549C58.5415 19.7503 59.3715 18.8925 60.4426 18.2816C61.5137 17.6707 62.7346 17.3652 64.1052 17.3652C66.1256 17.3652 67.6637 17.9615 68.7196 19.154L69.0089 17.8344H72.6639V31.3827H68.4759V29.8285C67.9987 30.4247 67.3337 30.8988 66.4809 31.2507ZM62.437 27.0448C63.0512 27.6801 63.8609 27.9978 64.866 27.9978C65.8813 27.9978 66.7062 27.6826 67.3407 27.0521C67.9753 26.4216 68.2926 25.5834 68.2926 24.5374C68.2926 23.5208 67.9753 22.7021 67.3407 22.0814C66.7062 21.4607 65.8813 21.1503 64.866 21.1503C63.8508 21.1503 63.0385 21.4656 62.4294 22.0961C61.8202 22.7266 61.5156 23.5501 61.5156 24.5668C61.5156 25.5834 61.8227 26.4094 62.437 27.0448ZM89.2514 10.7822V31.3833H84.8959V10.7822H89.2514Z" fill="white"/>
<path fill-rule="evenodd" clip-rule="evenodd" d="M98.9068 31.3834V20.2104H102.272V18.143H98.9068V15.5037C98.9068 14.9563 98.9474 14.4993 99.0286 14.1328C99.1099 13.7662 99.3231 13.4461 99.6683 13.1724C100.013 12.8987 100.546 12.7618 101.267 12.7618C101.704 12.7618 102.039 12.7911 102.272 12.8498V10.7823C101.856 10.7041 101.369 10.665 100.81 10.665C97.8154 10.665 96.3179 12.1166 96.3179 15.0199V18.143H93.8203V20.2104H96.3179V31.3834H98.9068ZM110.871 31.7508C112.058 31.7508 113.124 31.504 114.069 31.0104C115.013 30.5167 115.713 29.8593 116.17 29.0382V31.3843H118.607V18.1439H116.46L116.231 20.27C115.734 19.4879 115.038 18.8721 114.145 18.4225C113.251 17.9728 112.221 17.748 111.053 17.748C109.744 17.748 108.586 18.0388 107.581 18.6204C106.576 19.202 105.787 20.028 105.213 21.0984C104.639 22.1688 104.353 23.4029 104.353 24.8007C104.353 26.1692 104.627 27.3789 105.175 28.4297C105.723 29.4806 106.492 30.2968 107.482 30.8784C108.472 31.46 109.601 31.7508 110.871 31.7508ZM108.221 28.1791C109.033 29.0539 110.105 29.4914 111.435 29.4914C112.785 29.4914 113.876 29.0564 114.709 28.1864C115.541 27.3164 115.958 26.1483 115.958 24.682C115.958 23.2646 115.546 22.1307 114.724 21.2803C113.902 20.4298 112.826 20.0046 111.495 20.0046C110.125 20.0046 109.033 20.4396 108.221 21.3096C107.409 22.1796 107.003 23.3233 107.003 24.7407C107.003 26.1581 107.409 27.3042 108.221 28.1791ZM129.672 31.7508C131.398 31.7508 132.867 31.3085 134.081 30.4239C135.294 29.5392 136.027 28.3784 136.281 26.9415H133.631C133.449 27.7235 132.992 28.354 132.261 28.833C131.53 29.3119 130.646 29.5514 129.611 29.5514C128.22 29.5514 127.128 29.114 126.337 28.2391C125.545 27.3642 125.149 26.2083 125.149 24.7714C125.149 23.2758 125.56 22.0979 126.382 21.2377C127.205 20.3775 128.281 19.9474 129.611 19.9474C130.646 19.9474 131.525 20.182 132.245 20.6512C132.966 21.1204 133.428 21.7655 133.631 22.5867H136.281C136.037 21.1008 135.312 19.9229 134.103 19.053C132.895 18.183 131.408 17.748 129.641 17.748C128.25 17.748 127.019 18.0388 125.948 18.6204C124.877 19.202 124.04 20.0231 123.435 21.0837C122.831 22.1443 122.529 23.3638 122.529 24.7421C122.529 26.1301 122.826 27.3545 123.42 28.4151C124.014 29.4757 124.852 30.2968 125.933 30.8784C127.014 31.46 128.26 31.7508 129.672 31.7508ZM144.103 20.2105V31.3834H141.514V20.2105H138.834V18.1431H141.514V14.624H144.103V18.1431H146.814V20.2105H144.103ZM156.509 31.7508C157.951 31.7508 159.233 31.4454 160.354 30.8344C161.476 30.2235 162.355 29.3852 162.989 28.3198C163.624 27.2543 163.941 26.0715 163.941 24.7714C163.941 23.4518 163.629 22.2616 163.004 21.201C162.38 20.1404 161.499 19.2998 160.362 18.6791C159.225 18.0583 157.941 17.748 156.509 17.748C155.078 17.748 153.801 18.0583 152.679 18.6791C151.557 19.2998 150.684 20.1404 150.06 21.201C149.435 22.2616 149.123 23.4518 149.123 24.7714C149.123 26.0813 149.44 27.2665 150.075 28.3271C150.709 29.3877 151.588 30.2235 152.709 30.8344C153.831 31.4454 155.098 31.7508 156.509 31.7508ZM153.128 28.1716C154.011 29.0709 155.138 29.5206 156.509 29.5206C157.92 29.5206 159.07 29.0709 159.958 28.1716C160.846 27.2723 161.29 26.1384 161.29 24.7699C161.29 23.3916 160.849 22.2479 159.966 21.3388C159.082 20.4297 157.93 19.9752 156.509 19.9752C155.138 19.9752 154.011 20.4297 153.128 21.3388C152.244 22.2479 151.803 23.3916 151.803 24.7699C151.803 26.1384 152.244 27.2723 153.128 28.1716ZM170.437 31.3841V24.2433C170.437 22.9824 170.774 21.9951 171.449 21.2815C172.124 20.5679 173.086 20.2111 174.335 20.2111C174.752 20.2111 175.076 20.2307 175.31 20.2698V18.1437C174.894 18.0655 174.457 18.0264 174 18.0264C173.147 18.0264 172.399 18.2097 171.754 18.5762C171.109 18.9428 170.67 19.4682 170.437 20.1525L170.132 18.1437H167.848V31.3841H170.437ZM187.174 30.6365C186.174 31.3794 184.837 31.7508 183.162 31.7508C181.557 31.7508 180.24 31.3794 179.21 30.6365C178.179 29.8936 177.623 28.9112 177.542 27.6893H180.07C180.131 28.3735 180.436 28.9014 180.984 29.2728C181.532 29.6443 182.258 29.83 183.162 29.83C184.055 29.83 184.75 29.6589 185.248 29.3168C185.745 28.9747 185.994 28.4908 185.994 27.8652C185.994 27.2494 185.796 26.8071 185.4 26.5382C185.004 26.2694 184.497 26.0715 183.877 25.9444L181.441 25.4019C180.232 25.138 179.342 24.6932 178.768 24.0676C178.194 23.442 177.907 22.6795 177.907 21.7802C177.907 20.5583 178.387 19.5808 179.347 18.8477C180.306 18.1145 181.552 17.748 183.085 17.748C184.649 17.748 185.915 18.1243 186.885 18.877C187.855 19.6297 188.36 20.6267 188.4 21.8682H185.872C185.852 21.1839 185.58 20.6463 185.058 20.2553C184.535 19.8643 183.867 19.6688 183.055 19.6688C182.283 19.6688 181.672 19.835 181.22 20.1673C180.768 20.4997 180.542 20.964 180.542 21.5603C180.542 22.1175 180.722 22.5231 181.083 22.7773C181.443 23.0314 181.918 23.2172 182.507 23.3345L185.278 23.9356C186.426 24.18 187.278 24.6272 187.837 25.2773C188.395 25.9273 188.674 26.7118 188.674 27.6306C188.674 28.8916 188.174 29.8936 187.174 30.6365Z" fill="white"/>
<path d="M12.8176 20.2773C14.1545 20.2773 15.2382 22.2875 15.2382 23.5869C15.2382 24.8643 14.1909 26.9383 12.8853 26.9732L12.8176 26.9741C12.8176 26.9741 0.325195 24.8864 0.325195 23.5869C0.325195 22.3095 12.8176 20.2773 12.8176 20.2773Z" fill="#F7614F"/>
<path d="M49.3251 23.5857C49.3251 24.8631 36.7549 26.8953 36.7549 26.8953C35.461 26.8953 34.4121 24.8851 34.4121 23.5857C34.4121 22.3082 35.4258 20.5446 36.6893 20.5098C36.6893 20.5098 49.3251 22.2862 49.3251 23.5857Z" fill="#F7614F"/>
<path d="M21.3867 35.15C21.3867 33.8628 23.4745 32.8194 24.8241 32.8194C26.1509 32.8194 28.2244 33.8277 28.2606 35.0848L28.2616 35.15C28.2616 35.15 26.1738 47.1777 24.8241 47.1777C23.4974 47.1777 21.3867 35.15 21.3867 35.15Z" fill="#F7614F"/>
<path d="M24.8241 5.72205e-06C26.1509 5.72205e-06 28.2616 12.1027 28.2616 12.1027C28.2616 13.3485 26.1738 14.3584 24.8241 14.3584C23.4974 14.3584 21.4239 13.3825 21.3877 12.1659L21.3867 12.1027C21.3867 12.1027 23.4745 5.72205e-06 24.8241 5.72205e-06Z" fill="#F7614F"/>
<path d="M17.4116 27.8257C18.0692 27.1926 19.4726 27.5172 20.1088 28.1297C20.7342 28.7319 21.0825 30.0593 20.4574 30.6941L20.4245 30.7266C20.4245 30.7266 13.4093 35.8052 12.773 35.1926C12.1476 34.5904 17.4116 27.8257 17.4116 27.8257Z" fill="#F7614F"/>
<path d="M36.8773 11.9852C37.5028 12.5874 32.2005 19.3889 32.2005 19.3889C31.564 20.0017 30.1778 19.6606 29.5416 19.0481C28.9162 18.4459 28.5513 17.1345 29.1558 16.5196L29.1876 16.4881C29.1876 16.4881 36.2411 11.3726 36.8773 11.9852Z" fill="#F7614F"/>
<path d="M29.2251 30.7242C28.5675 30.091 28.9046 28.7399 29.5408 28.1273C30.1663 27.5251 31.5449 27.1898 32.2042 27.7917L32.238 27.8233C32.238 27.8233 37.5128 34.5776 36.8766 35.1902C36.2511 35.7924 29.2251 30.7242 29.2251 30.7242Z" fill="#F7614F"/>
<path d="M12.7733 11.9828C13.3987 11.3806 20.463 16.4857 20.463 16.4857C21.0995 17.0985 20.7452 18.4331 20.109 19.0457C19.4835 19.6479 18.1214 19.9992 17.4828 19.4172L17.4501 19.3865C17.4501 19.3865 12.137 12.5953 12.7733 11.9828Z" fill="#F7614F"/>
</svg>
